<?xml version="1.0" encoding="UTF-8"?>
<svg width="600px" height="600px" viewBox="0 0 600 600" version="1.1" xmlns="http://www.w3.org/2000/svg" xmlns:xlink="http://www.w3.org/1999/xlink">
    <title>luden</title>
    <g id="luden" stroke="none" stroke-width="1" fill="none" fill-rule="evenodd">
        <g id="Group" transform="translate(120.000000, 78.000000)" fill="#AA00FF">
            <path d="M0,121.26372 L0,407.610462 C3.61142947,422.683661 9.07110049,432.599728 16.379013,437.358663 C23.6869256,442.117598 36.835037,444.318977 55.8233472,443.962797 L236.665998,342.66308 L189.301983,288.463144 L189.301983,218.8575 L314,146.502781 L60.8101144,0.68548244 C53.2922051,0.157895091 48.1274224,-0.0651457142 45.3157664,0.0163600253 C38.9113991,0.202013136 35.1444532,0.66744036 32.0525827,1.43118716 C25.2175203,3.11956873 20.3514817,6.98160695 16.379013,10.1765973 C11.5006366,14.1001943 5.48023539,20.0155216 2.59384435,28.0819072 C1.9543882,29.8689485 1.45689667,33.2021058 1.04141263,36.270362 C0.709357815,38.7225121 0.362220273,43.0195317 0,49.1614208 L130.402021,127.382915 L130.402021,321.325596 L68.8153974,355.556903 L68.8153974,160.633104 L0,121.26372 Z" id="Path-20"></path>
            <path d="M243,257.585884 L376.670734,181 C384.605004,188.251863 389.654157,193.669491 391.818192,197.252885 C397.44307,206.567037 397.656246,215.751865 397.971765,221.285408 C398.276196,226.624481 396.111829,237.135736 391.818192,245 C390.001892,248.326753 386.408366,252.522048 381.037616,257.585884 L290.042513,309 L243,257.585884 Z" id="Path-24"></path>
        </g>
    </g>
</svg>