<?xml version="1.0" encoding="UTF-8"?>
<svg width="100px" height="20px" viewBox="0 0 100 20" version="1.1" xmlns="http://www.w3.org/2000/svg" xmlns:xlink="http://www.w3.org/1999/xlink">
    <title>logo-responsive</title>
    <g id="guinsoolab-logos" stroke="none" stroke-width="1" fill="none" fill-rule="evenodd">
        <g id="logo-responsive" fill-rule="nonzero">
            <g id="logo-square">
                <rect id="Rectangle" fill="#AA00FF" x="0" y="0" width="20" height="20"></rect>
                <g id="Group" transform="translate(4.000000, 2.600000)" fill="#FFFFFF">
                    <path d="M0,4.042124 L0,13.5870154 C0.120380982,14.0894554 0.302370016,14.4199909 0.5459671,14.5786221 C0.789564187,14.7372533 1.22783457,14.8106326 1.86077824,14.7987599 L7.8888666,11.4221027 L6.3100661,9.61543813 L6.3100661,7.29525 L10.4666667,4.88342603 L2.02700381,0.0228494147 C1.77640684,0.0052631697 1.60424741,-0.00217152381 1.51052555,0.000545334178 C1.29704664,0.0067337712 1.17148177,0.022248012 1.06841942,0.0477062387 C0.84058401,0.103985624 0.678382723,0.232720232 0.5459671,0.33921991 C0.383354553,0.470006477 0.182674513,0.667184053 0.0864614783,0.936063573 C0.0651462733,0.995631617 0.0485632223,1.10673686 0.0347137543,1.20901207 C0.0236452605,1.2907504 0.0120740091,1.43398439 0,1.63871403 L4.34673403,4.24609717 L4.34673403,10.7108532 L2.29384658,11.8518968 L2.29384658,5.3544368 L0,4.042124 Z" id="Path-20"></path>
                    <path d="M8.1,8.58619613 L12.5556911,6.03333333 C12.8201668,6.2750621 12.9884719,6.4556497 13.0606064,6.57509617 C13.2481023,6.8855679 13.2552082,7.19172883 13.2657255,7.37618027 C13.2758732,7.55414937 13.2037276,7.90452453 13.0606064,8.16666667 C13.0000631,8.27755843 12.8802789,8.4174016 12.7012539,8.58619613 L9.66808377,10.3 L8.1,8.58619613 Z" id="Path-24"></path>
                </g>
            </g>
            <path d="M44.98,18 L44.98,15.3 L39.58,15.3 L39.58,3.43 L36.2,3.43 L36.2,18 L44.98,18 Z M49.9,18.16 C50.2333333,18.16 50.54,18.1283333 50.82,18.065 C51.1,18.0016667 51.3616667,17.915 51.605,17.805 C51.8483333,17.695 52.0766667,17.5616667 52.29,17.405 C52.5033333,17.2483333 52.71,17.0733333 52.91,16.88 L52.91,16.88 L53.1,17.48 C53.22,17.8266667 53.4733333,18 53.86,18 L53.86,18 L55.78,18 L55.78,7.63 L52.68,7.63 L52.68,15.02 C52.4,15.2733333 52.1116667,15.47 51.815,15.61 C51.5183333,15.75 51.2,15.82 50.86,15.82 C50.4066667,15.82 50.0633333,15.68 49.83,15.4 C49.5966667,15.12 49.48,14.7233333 49.48,14.21 L49.48,14.21 L49.48,7.63 L46.38,7.63 L46.38,14.21 C46.38,14.7833333 46.4566667,15.31 46.61,15.79 C46.7633333,16.27 46.99,16.6866667 47.29,17.04 C47.59,17.3933333 47.9583333,17.6683333 48.395,17.865 C48.8316667,18.0616667 49.3333333,18.16 49.9,18.16 Z M61.24,18.16 C61.5933333,18.16 61.9216667,18.125 62.225,18.055 C62.5283333,17.985 62.8116667,17.885 63.075,17.755 C63.3383333,17.625 63.5833333,17.47 63.81,17.29 C64.0366667,17.11 64.2533333,16.91 64.46,16.69 L64.46,16.69 L64.7,17.48 C64.7533333,17.6533333 64.845,17.7833333 64.975,17.87 C65.105,17.9566667 65.2666667,18 65.46,18 L65.46,18 L67.38,18 L67.38,3.03 L64.28,3.03 L64.28,8.28 C63.98,8.02666667 63.645,7.82166667 63.275,7.665 C62.905,7.50833333 62.4533333,7.43 61.92,7.43 C61.26,7.43 60.6566667,7.56666667 60.11,7.84 C59.5633333,8.11333333 59.095,8.49166667 58.705,8.975 C58.315,9.45833333 58.0133333,10.0316667 57.8,10.695 C57.5866667,11.3583333 57.48,12.0766667 57.48,12.85 C57.48,13.69 57.575,14.4383333 57.765,15.095 C57.955,15.7516667 58.2166667,16.3066667 58.55,16.76 C58.8833333,17.2133333 59.28,17.56 59.74,17.8 C60.2,18.04 60.7,18.16 61.24,18.16 Z M62.32,15.78 C62.0733333,15.78 61.85,15.73 61.65,15.63 C61.45,15.53 61.2783333,15.365 61.135,15.135 C60.9916667,14.905 60.88,14.6033333 60.8,14.23 C60.72,13.8566667 60.68,13.3966667 60.68,12.85 C60.68,12.2833333 60.73,11.8 60.83,11.4 C60.93,11 61.0683333,10.675 61.245,10.425 C61.4216667,10.175 61.63,9.99333333 61.87,9.88 C62.11,9.76666667 62.3733333,9.71 62.66,9.71 C62.96,9.71 63.245,9.76166667 63.515,9.865 C63.785,9.96833333 64.04,10.15 64.28,10.41 L64.28,10.41 L64.28,14.81 C64.1466667,14.97 64.0116667,15.11 63.875,15.23 C63.7383333,15.35 63.5933333,15.45 63.44,15.53 C63.2866667,15.61 63.1183333,15.6716667 62.935,15.715 C62.7516667,15.7583333 62.5466667,15.78 62.32,15.78 Z M74.36,18.16 C74.7133333,18.16 75.085,18.135 75.475,18.085 C75.865,18.035 76.255,17.945 76.645,17.815 C77.035,17.685 77.415,17.505 77.785,17.275 C78.155,17.045 78.5,16.7466667 78.82,16.38 L78.82,16.38 L77.92,15.27 C77.7933333,15.09 77.6066667,15 77.36,15 C77.1733333,15 76.995,15.0433333 76.825,15.13 C76.655,15.2166667 76.4683333,15.3133333 76.265,15.42 C76.0616667,15.5266667 75.83,15.6233333 75.57,15.71 C75.31,15.7966667 75,15.84 74.64,15.84 C73.9666667,15.84 73.4166667,15.645 72.99,15.255 C72.5633333,14.865 72.3,14.2366667 72.2,13.37 L72.2,13.37 L78.18,13.37 C78.32,13.37 78.435,13.3533333 78.525,13.32 C78.615,13.2866667 78.6866667,13.2266667 78.74,13.14 C78.7933333,13.0533333 78.83,12.9366667 78.85,12.79 C78.87,12.6433333 78.88,12.4533333 78.88,12.22 C78.88,11.4733333 78.765,10.805 78.535,10.215 C78.305,9.625 77.985,9.12666667 77.575,8.72 C77.165,8.31333333 76.675,8.00333333 76.105,7.79 C75.535,7.57666667 74.9066667,7.47 74.22,7.47 C73.4266667,7.47 72.715,7.60666667 72.085,7.88 C71.455,8.15333333 70.9183333,8.52333333 70.475,8.99 C70.0316667,9.45666667 69.6916667,10 69.455,10.62 C69.2183333,11.24 69.1,11.8966667 69.1,12.59 C69.1,13.51 69.2383333,14.3166667 69.515,15.01 C69.7916667,15.7033333 70.1683333,16.2833333 70.645,16.75 C71.1216667,17.2166667 71.6783333,17.5683333 72.315,17.805 C72.9516667,18.0416667 73.6333333,18.16 74.36,18.16 Z M76.1,11.57 L72.23,11.57 C72.3366667,10.9366667 72.5566667,10.4516667 72.89,10.115 C73.2233333,9.77833333 73.6866667,9.61 74.28,9.61 C74.6133333,9.61 74.8966667,9.66666667 75.13,9.78 C75.3633333,9.89333333 75.5516667,10.0416667 75.695,10.225 C75.8383333,10.4083333 75.9416667,10.6166667 76.005,10.85 C76.0683333,11.0833333 76.1,11.3233333 76.1,11.57 L76.1,11.57 Z M83.76,18 L83.76,10.61 C84.0333333,10.3633333 84.32,10.1666667 84.62,10.02 C84.92,9.87333333 85.24,9.8 85.58,9.8 C86.0333333,9.8 86.3766667,9.94166667 86.61,10.225 C86.8433333,10.5083333 86.96,10.9033333 86.96,11.41 L86.96,11.41 L86.96,18 L90.06,18 L90.06,11.41 C90.06,10.8433333 89.9833333,10.3183333 89.83,9.835 C89.6766667,9.35166667 89.45,8.935 89.15,8.585 C88.85,8.235 88.4816667,7.96166667 88.045,7.765 C87.6083333,7.56833333 87.1066667,7.47 86.54,7.47 C86.2066667,7.47 85.8983333,7.50166667 85.615,7.565 C85.3316667,7.62833333 85.0683333,7.715 84.825,7.825 C84.5816667,7.935 84.3533333,8.07 84.14,8.23 C83.9266667,8.39 83.72,8.56333333 83.52,8.75 L83.52,8.75 L83.34,8.15 C83.2866667,7.97666667 83.195,7.84666667 83.065,7.76 C82.935,7.67333333 82.7733333,7.63 82.58,7.63 L82.58,7.63 L80.66,7.63 L80.66,18 L83.76,18 Z" id="Luden" fill="#FFFFFF"></path>
        </g>
    </g>
</svg>